<svg width="148" height="32" viewBox="0 0 148 32" fill="none" xmlns="http://www.w3.org/2000/svg">
<path d="M108.204 23.5245C107.177 23.5245 106.265 23.288 105.467 22.8149C104.67 22.3419 104.048 21.6864 103.602 20.8484C103.156 19.9969 102.933 19.0035 102.933 17.8682C102.933 16.7329 103.156 15.7395 103.602 14.888C104.048 14.0365 104.67 13.381 105.467 12.9215C106.265 12.4484 107.177 12.2119 108.204 12.2119C109.245 12.2119 110.157 12.4484 110.941 12.9215C111.739 13.381 112.36 14.0365 112.806 14.888C113.252 15.7395 113.475 16.7329 113.475 17.8682C113.475 19.0035 113.252 19.9969 112.806 20.8484C112.36 21.6864 111.739 22.3419 110.941 22.8149C110.157 23.288 109.245 23.5245 108.204 23.5245ZM108.204 20.8281C108.88 20.8281 109.407 20.5848 109.786 20.0983C110.177 19.5982 110.373 18.8548 110.373 17.8682C110.373 16.8816 110.177 16.145 109.786 15.6584C109.407 15.1583 108.88 14.9083 108.204 14.9083C107.528 14.9083 106.995 15.1583 106.603 15.6584C106.224 16.145 106.035 16.8816 106.035 17.8682C106.035 18.8548 106.224 19.5982 106.603 20.0983C106.995 20.5848 107.528 20.8281 108.204 20.8281Z" fill="#151514"/>
<path d="M98.5969 23.2411V12.4962H101.618V23.2411H98.5969ZM100.117 11.3203C99.6714 11.3203 99.2997 11.1784 99.0024 10.8946C98.7186 10.6107 98.5767 10.2391 98.5767 9.77953C98.5767 9.30648 98.7186 8.94156 99.0024 8.68477C99.2997 8.41445 99.6714 8.2793 100.117 8.2793C100.55 8.2793 100.915 8.41445 101.212 8.68477C101.51 8.94156 101.658 9.30648 101.658 9.77953C101.658 10.2391 101.51 10.6107 101.212 10.8946C100.915 11.1784 100.55 11.3203 100.117 11.3203Z" fill="#151514"/>
<path d="M91.2397 23.2407V12.4957H94.2605V23.2407H91.2397ZM93.855 18.4156C93.855 17.1586 93.9767 16.0706 94.2199 15.1516C94.4632 14.219 94.8619 13.4959 95.4161 12.9823C95.9702 12.4687 96.7136 12.2119 97.6462 12.2119V15.6787H96.2067C95.585 15.6787 95.1052 15.8273 94.7673 16.1247C94.4294 16.422 94.2605 16.9627 94.2605 17.7466L93.855 18.4156Z" fill="#151514"/>
<path d="M83.293 23.5248C82.2388 23.5248 81.3738 23.1532 80.698 22.4098C80.0357 21.6529 79.7046 20.6055 79.7046 19.2674V12.4961H82.7253V18.6592C82.7253 19.3755 82.8943 19.9229 83.2322 20.3014C83.5836 20.6663 84.0296 20.8487 84.5702 20.8487C85.1108 20.8487 85.5501 20.6663 85.888 20.3014C86.2259 19.9229 86.3948 19.3755 86.3948 18.6592H86.9422C86.9422 19.6864 86.7935 20.5649 86.4962 21.2948C86.1988 22.0246 85.7731 22.5787 85.219 22.9572C84.6783 23.3356 84.0363 23.5248 83.293 23.5248ZM86.3948 23.241V12.4961H89.4156V23.241H86.3948Z" fill="#151514"/>
<path d="M76.5249 23.5245C75.3491 23.5245 74.4165 23.1866 73.7272 22.5108C73.0514 21.835 72.7135 20.8214 72.7135 19.4698V10.2657L75.7343 9.67773V19.1252C75.7343 19.6658 75.8762 20.078 76.16 20.3618C76.4438 20.6321 76.8426 20.7673 77.3562 20.7673C77.5994 20.7673 77.8224 20.747 78.0252 20.7065C78.2414 20.6524 78.4577 20.5984 78.6739 20.5443V23.2407C78.3631 23.3353 78.0319 23.4029 77.6805 23.4434C77.3426 23.4975 76.9574 23.5245 76.5249 23.5245ZM71.3755 14.9894V12.4957H78.5726V14.9894H71.3755Z" fill="#151514"/>
<path d="M64.3226 20.3628V16.673L67.688 12.4967H71.2562L64.3226 20.3628ZM61.5249 23.2416V8.74609H64.5456V23.2416H61.5249ZM68.0327 23.2416L64.8903 18.4165L66.7352 16.2878L71.54 23.2416H68.0327Z" fill="#151514"/>
<path d="M56.9473 23.2407C56.8663 22.8893 56.7987 22.5311 56.7446 22.1662C56.7041 21.8013 56.6838 21.4431 56.6838 21.0917V16.5504C56.6838 15.8476 56.5216 15.3543 56.1972 15.0705C55.8729 14.7866 55.4877 14.6447 55.0416 14.6447C54.6091 14.6447 54.2307 14.7664 53.9063 15.0096C53.5955 15.2529 53.3792 15.6516 53.2576 16.2058L50.3585 15.5773C50.6423 14.4555 51.21 13.6175 52.0614 13.0634C52.9129 12.4957 53.9671 12.2119 55.2241 12.2119C56.6027 12.2119 57.6907 12.5768 58.4881 13.3067C59.2991 14.023 59.7045 15.0232 59.7045 16.3071V20.8484C59.7045 21.6458 59.8059 22.4432 60.0086 23.2407H56.9473ZM53.4198 23.5245C52.3655 23.5245 51.5614 23.2474 51.0072 22.6933C50.4666 22.1391 50.1963 21.4093 50.1963 20.5038C50.1963 19.7063 50.4598 19.0035 50.987 18.3953C51.5276 17.7736 52.3588 17.3749 53.4806 17.1992L57.5555 16.5302V18.4359L54.5754 19.0643C54.0618 19.1725 53.7104 19.3346 53.5211 19.5509C53.3319 19.7671 53.2373 19.9969 53.2373 20.2402C53.2373 20.497 53.3184 20.7132 53.4806 20.8889C53.6563 21.0511 53.9131 21.1322 54.251 21.1322C54.6429 21.1322 55.0214 21.0444 55.3863 20.8687C55.7647 20.693 56.0756 20.4294 56.3189 20.078C56.5621 19.7131 56.6838 19.2738 56.6838 18.7602H57.3731C57.3731 19.7334 57.1974 20.5781 56.846 21.2944C56.5081 22.0107 56.0418 22.5649 55.4471 22.9568C54.8524 23.3353 54.1766 23.5245 53.4198 23.5245Z" fill="#151514"/>
<path d="M39.7861 23.2406V9.25195H42.9285V23.2406H39.7861ZM41.1647 17.929V15.1515H49.0105V17.929H41.1647ZM41.1647 12.1916V9.25195H49.8418V12.1916H41.1647Z" fill="#151514"/>
<circle cx="15.7598" cy="15.7598" r="15.7598" fill="#F8DA43"/>
<rect x="15.7793" y="4.30469" width="7.58414" height="7.58414" rx="1" transform="rotate(45 15.7793 4.30469)" fill="#151514"/>
<rect x="9.66748" y="10.416" width="7.58414" height="7.58414" rx="1" transform="rotate(45 9.66748 10.416)" fill="#151514"/>
<rect x="21.853" y="10.3779" width="7.58414" height="7.58414" rx="1" transform="rotate(45 21.853 10.3779)" fill="#151514"/>
<rect x="15.7412" y="16.4902" width="7.58414" height="7.58414" rx="1" transform="rotate(45 15.7412 16.4902)" fill="#151514"/>
<rect x="119" y="9.67773" width="29" height="14" rx="7" fill="#E2E2E2"/>
<path d="M124.024 19.6777V18.6617H125.816C126.125 18.6617 126.347 18.6031 126.48 18.4857C126.613 18.3631 126.68 18.1977 126.68 17.9897C126.68 17.7764 126.613 17.6111 126.48 17.4937C126.347 17.3711 126.125 17.3097 125.816 17.3097H124.024V16.6377H125.984C126.576 16.6377 127.029 16.7764 127.344 17.0537C127.659 17.3311 127.816 17.6857 127.816 18.1177C127.816 18.5764 127.651 18.9524 127.32 19.2457C126.989 19.5337 126.52 19.6777 125.912 19.6777H124.024ZM123.528 19.6777V14.1577H124.64V19.6777H123.528ZM124.024 16.9017V16.4057H125.672C125.955 16.4057 126.16 16.3497 126.288 16.2377C126.421 16.1204 126.488 15.9684 126.488 15.7817C126.488 15.5951 126.421 15.4484 126.288 15.3417C126.16 15.2297 125.955 15.1737 125.672 15.1737H124.024V14.1577H125.776C126.165 14.1577 126.496 14.2191 126.768 14.3417C127.045 14.4591 127.256 14.6271 127.4 14.8457C127.544 15.0591 127.616 15.3071 127.616 15.5897C127.616 15.9737 127.456 16.2884 127.136 16.5337C126.821 16.7791 126.36 16.9017 125.752 16.9017H124.024ZM128.911 19.6777V14.1577H130.023V19.6777H128.911ZM129.407 19.6777V18.6457H132.991V19.6777H129.407ZM129.407 17.3577V16.3737H132.567V17.3577H129.407ZM129.407 15.1897V14.1577H132.959V15.1897H129.407ZM135.44 19.6777V14.1577H136.544V19.6777H135.44ZM133.784 15.1897V14.1577H138.192V15.1897H133.784ZM142.417 19.6777L140.681 14.1577H141.777L143.593 19.6777H142.417ZM138.313 19.6777L140.129 14.1577H141.161L139.465 19.6777H138.313ZM139.481 18.3257V17.3417H142.425V18.3257H139.481Z" fill="black"/>
</svg>
