<svg width="68" height="19" viewBox="0 0 68 19" fill="none" xmlns="http://www.w3.org/2000/svg">
<path d="M64.0466 13.9245C63.4386 13.9245 62.8986 13.7845 62.4266 13.5045C61.9546 13.2245 61.5866 12.8365 61.3226 12.3405C61.0586 11.8365 60.9266 11.2485 60.9266 10.5765C60.9266 9.90452 61.0586 9.31652 61.3226 8.81252C61.5866 8.30852 61.9546 7.92052 62.4266 7.64852C62.8986 7.36852 63.4386 7.22852 64.0466 7.22852C64.6626 7.22852 65.2026 7.36852 65.6666 7.64852C66.1386 7.92052 66.5066 8.30852 66.7706 8.81252C67.0346 9.31652 67.1666 9.90452 67.1666 10.5765C67.1666 11.2485 67.0346 11.8365 66.7706 12.3405C66.5066 12.8365 66.1386 13.2245 65.6666 13.5045C65.2026 13.7845 64.6626 13.9245 64.0466 13.9245ZM64.0466 12.3285C64.4466 12.3285 64.7586 12.1845 64.9826 11.8965C65.2146 11.6005 65.3306 11.1605 65.3306 10.5765C65.3306 9.99252 65.2146 9.55652 64.9826 9.26852C64.7586 8.97252 64.4466 8.82452 64.0466 8.82452C63.6466 8.82452 63.3306 8.97252 63.0986 9.26852C62.8746 9.55652 62.7626 9.99252 62.7626 10.5765C62.7626 11.1605 62.8746 11.6005 63.0986 11.8965C63.3306 12.1845 63.6466 12.3285 64.0466 12.3285Z" fill="#141414"/>
<path d="M58.36 13.7566V7.39663H60.148V13.7566H58.36ZM59.26 6.70064C58.996 6.70064 58.776 6.61663 58.6 6.44863C58.432 6.28063 58.348 6.06063 58.348 5.78863C58.348 5.50863 58.432 5.29263 58.6 5.14063C58.776 4.98063 58.996 4.90063 59.26 4.90063C59.516 4.90063 59.732 4.98063 59.908 5.14063C60.084 5.29263 60.172 5.50863 60.172 5.78863C60.172 6.06063 60.084 6.28063 59.908 6.44863C59.732 6.61663 59.516 6.70064 59.26 6.70064Z" fill="#141414"/>
<path d="M54.0051 13.7565V7.39652H55.7931V13.7565H54.0051ZM55.5531 10.9005C55.5531 10.1565 55.6251 9.51252 55.7691 8.96852C55.9131 8.41652 56.1491 7.98852 56.4771 7.68452C56.8051 7.38052 57.2451 7.22852 57.7971 7.22852V9.28052H56.9451C56.5771 9.28052 56.2931 9.36852 56.0931 9.54452C55.8931 9.72052 55.7931 10.0405 55.7931 10.5045L55.5531 10.9005Z" fill="#141414"/>
<path d="M49.3016 13.9245C48.6776 13.9245 48.1656 13.7045 47.7656 13.2645C47.3736 12.8165 47.1776 12.1965 47.1776 11.4045V7.39648H48.9656V11.0445C48.9656 11.4685 49.0656 11.7925 49.2656 12.0165C49.4736 12.2325 49.7376 12.3405 50.0576 12.3405C50.3776 12.3405 50.6376 12.2325 50.8376 12.0165C51.0376 11.7925 51.1376 11.4685 51.1376 11.0445H51.4616C51.4616 11.6525 51.3736 12.1725 51.1976 12.6045C51.0216 13.0365 50.7696 13.3645 50.4416 13.5885C50.1216 13.8125 49.7416 13.9245 49.3016 13.9245ZM51.1376 13.7565V7.39648H52.9256V13.7565H51.1376Z" fill="#141414"/>
<path d="M45.2955 13.9245C44.5995 13.9245 44.0475 13.7245 43.6395 13.3245C43.2395 12.9245 43.0395 12.3245 43.0395 11.5245V6.07652L44.8275 5.72852V11.3205C44.8275 11.6405 44.9115 11.8845 45.0795 12.0525C45.2475 12.2125 45.4835 12.2925 45.7875 12.2925C45.9315 12.2925 46.0635 12.2805 46.1835 12.2565C46.3115 12.2245 46.4395 12.1925 46.5675 12.1605V13.7565C46.3835 13.8125 46.1875 13.8525 45.9795 13.8765C45.7795 13.9085 45.5515 13.9245 45.2955 13.9245ZM42.2475 8.87252V7.39652H46.5075V8.87252H42.2475Z" fill="#141414"/>
<path d="M38.0731 12.0525V9.86851L40.0651 7.39651H42.1771L38.0731 12.0525ZM36.4171 13.7565V5.17651H38.2051V13.7565H36.4171ZM40.2691 13.7565L38.4091 10.9005L39.5011 9.64051L42.3451 13.7565H40.2691Z" fill="#141414"/>
<path d="M33.7074 13.7565C33.6594 13.5485 33.6194 13.3365 33.5874 13.1205C33.5634 12.9045 33.5514 12.6925 33.5514 12.4845V9.79652C33.5514 9.38052 33.4554 9.08852 33.2634 8.92052C33.0714 8.75252 32.8434 8.66852 32.5794 8.66852C32.3234 8.66852 32.0994 8.74052 31.9074 8.88452C31.7234 9.02852 31.5954 9.26452 31.5234 9.59252L29.8074 9.22052C29.9754 8.55652 30.3114 8.06052 30.8154 7.73252C31.3194 7.39652 31.9434 7.22852 32.6874 7.22852C33.5034 7.22852 34.1474 7.44452 34.6194 7.87652C35.0994 8.30052 35.3394 8.89252 35.3394 9.65252V12.3405C35.3394 12.8125 35.3994 13.2845 35.5194 13.7565H33.7074ZM31.6194 13.9245C30.9954 13.9245 30.5194 13.7605 30.1914 13.4325C29.8714 13.1045 29.7114 12.6725 29.7114 12.1365C29.7114 11.6645 29.8674 11.2485 30.1794 10.8885C30.4994 10.5205 30.9914 10.2845 31.6554 10.1805L34.0674 9.78452V10.9125L32.3034 11.2845C31.9994 11.3485 31.7914 11.4445 31.6794 11.5725C31.5674 11.7005 31.5114 11.8365 31.5114 11.9805C31.5114 12.1325 31.5594 12.2605 31.6554 12.3645C31.7594 12.4605 31.9114 12.5085 32.1114 12.5085C32.3434 12.5085 32.5674 12.4565 32.7834 12.3525C33.0074 12.2485 33.1914 12.0925 33.3354 11.8845C33.4794 11.6685 33.5514 11.4085 33.5514 11.1045H33.9594C33.9594 11.6805 33.8554 12.1805 33.6474 12.6045C33.4474 13.0285 33.1714 13.3565 32.8194 13.5885C32.4674 13.8125 32.0674 13.9245 31.6194 13.9245Z" fill="#141414"/>
<path d="M23.5497 13.7566V5.47656H25.4097V13.7566H23.5497ZM24.3657 10.6126V8.96856H29.0097V10.6126H24.3657ZM24.3657 7.21656V5.47656H29.5017V7.21656H24.3657Z" fill="#141414"/>
<circle cx="9.32861" cy="9.32861" r="9.32861" fill="#F8DA43"/>
<rect x="9.33981" y="2.54761" width="4.48953" height="4.48953" rx="1" transform="rotate(45 9.33981 2.54761)" fill="#141414"/>
<rect x="5.72223" y="6.16528" width="4.48953" height="4.48953" rx="1" transform="rotate(45 5.72223 6.16528)" fill="#141414"/>
<rect x="12.935" y="6.14282" width="4.48953" height="4.48953" rx="1" transform="rotate(45 12.935 6.14282)" fill="#141414"/>
<rect x="9.31741" y="9.7605" width="4.48953" height="4.48953" rx="1" transform="rotate(45 9.31741 9.7605)" fill="#141414"/>
</svg>
