<svg width="24" height="24" viewBox="0 0 24 24" fill="none" xmlns="http://www.w3.org/2000/svg">
<path d="M3 5.25C3 4.65326 3.23705 4.08097 3.65901 3.65901C4.08097 3.23705 4.65326 3 5.25 3H14.75C15.3467 3 15.919 3.23705 16.341 3.65901C16.7629 4.08097 17 4.65326 17 5.25V14H21V17.75C21 18.612 20.6576 19.4386 20.0481 20.0481C19.4386 20.6576 18.612 21 17.75 21H6.25C5.38805 21 4.5614 20.6576 3.9519 20.0481C3.34241 19.4386 3 18.612 3 17.75V5.25ZM17 19.5H17.75C18.2141 19.5 18.6592 19.3156 18.9874 18.9874C19.3156 18.6592 19.5 18.2141 19.5 17.75V15.5H17V19.5ZM5.25 4.5C5.05109 4.5 4.86032 4.57902 4.71967 4.71967C4.57902 4.86032 4.5 5.05109 4.5 5.25V17.75C4.5 18.716 5.284 19.5 6.25 19.5H15.5V5.25C15.5 5.05109 15.421 4.86032 15.2803 4.71967C15.1397 4.57902 14.9489 4.5 14.75 4.5H5.25ZM7.25 7C7.05109 7 6.86032 7.07902 6.71967 7.21967C6.57902 7.36032 6.5 7.55109 6.5 7.75C6.5 7.94891 6.57902 8.13968 6.71967 8.28033C6.86032 8.42098 7.05109 8.5 7.25 8.5H12.75C12.9489 8.5 13.1397 8.42098 13.2803 8.28033C13.421 8.13968 13.5 7.94891 13.5 7.75C13.5 7.55109 13.421 7.36032 13.2803 7.21967C13.1397 7.07902 12.9489 7 12.75 7H7.25ZM6.5 11.75C6.5 11.5511 6.57902 11.3603 6.71967 11.2197C6.86032 11.079 7.05109 11 7.25 11H12.75C12.9489 11 13.1397 11.079 13.2803 11.2197C13.421 11.3603 13.5 11.5511 13.5 11.75C13.5 11.9489 13.421 12.1397 13.2803 12.2803C13.1397 12.421 12.9489 12.5 12.75 12.5H7.25C7.05109 12.5 6.86032 12.421 6.71967 12.2803C6.57902 12.1397 6.5 11.9489 6.5 11.75ZM7.25 15C7.05109 15 6.86032 15.079 6.71967 15.2197C6.57902 15.3603 6.5 15.5511 6.5 15.75C6.5 15.9489 6.57902 16.1397 6.71967 16.2803C6.86032 16.421 7.05109 16.5 7.25 16.5H10.25C10.4489 16.5 10.6397 16.421 10.7803 16.2803C10.921 16.1397 11 15.9489 11 15.75C11 15.5511 10.921 15.3603 10.7803 15.2197C10.6397 15.079 10.4489 15 10.25 15H7.25Z" fill="currentColor"/>
</svg>

